<?xml version="1.0" encoding="UTF-8" standalone="no"?>
<!-- Created with Inkscape (http://www.inkscape.org/) -->

<svg
   xmlns:dc="http://purl.org/dc/elements/1.1/"
   xmlns:cc="http://creativecommons.org/ns#"
   xmlns:rdf="http://www.w3.org/1999/02/22-rdf-syntax-ns#"
   xmlns:svg="http://www.w3.org/2000/svg"
   xmlns="http://www.w3.org/2000/svg"
   xmlns:sodipodi="http://sodipodi.sourceforge.net/DTD/sodipodi-0.dtd"
   xmlns:inkscape="http://www.inkscape.org/namespaces/inkscape"
   width="280"
   height="90"
   viewBox="0 0 74.083331 23.812501"
   version="1.1"
   id="svg8"
   inkscape:version="0.92.4 (5da689c313, 2019-01-14)"
   sodipodi:docname="logo-herb-v2.svg">
  <defs
     id="defs2" />
  <sodipodi:namedview
     id="base"
     pagecolor="#ffffff"
     bordercolor="#666666"
     borderopacity="1.0"
     inkscape:pageopacity="0.0"
     inkscape:pageshadow="2"
     inkscape:zoom="1.5909903"
     inkscape:cx="138.09266"
     inkscape:cy="95.277752"
     inkscape:document-units="mm"
     inkscape:current-layer="layer1"
     showgrid="false"
     inkscape:window-width="1920"
     inkscape:window-height="1001"
     inkscape:window-x="-9"
     inkscape:window-y="-9"
     inkscape:window-maximized="1"
     units="px" />
  <metadata
     id="metadata5">
    <rdf:RDF>
      <cc:Work
         rdf:about="">
        <dc:format>image/svg+xml</dc:format>
        <dc:type
           rdf:resource="http://purl.org/dc/dcmitype/StillImage" />
        <dc:title></dc:title>
      </cc:Work>
    </rdf:RDF>
  </metadata>
  <g
     inkscape:label="Layer 1"
     inkscape:groupmode="layer"
     id="layer1"
     transform="translate(0,-273.18748)">
    <g
       aria-label="Gmina"
       style="font-style:normal;font-weight:normal;font-size:10.58333302px;line-height:1.25;font-family:sans-serif;letter-spacing:0px;word-spacing:0px;fill:#000000;fill-opacity:1;stroke:none;stroke-width:0.26458332"
       id="text4599">
      <path
         d="m 29.530661,282.4315 q 0,0.0531 -0.01447,0.11094 -0.0096,0.0579 -0.05306,0.0965 -0.217041,0.16399 -0.472667,0.30386 -0.250803,0.13504 -0.545014,0.23633 -0.294211,0.10129 -0.636654,0.15434 -0.337619,0.0579 -0.728293,0.0579 -0.87781,0 -1.60128,-0.25563 -0.72347,-0.26045 -1.244369,-0.73311 -0.516075,-0.47267 -0.80064,-1.13344 -0.284565,-0.66559 -0.284565,-1.47588 0,-0.4582 0.115755,-0.90193 0.120579,-0.44372 0.347266,-0.84404 0.226687,-0.40032 0.559483,-0.73312 0.332797,-0.33762 0.757232,-0.5836 0.429259,-0.24598 0.940511,-0.38103 0.516076,-0.13987 1.114144,-0.13987 0.231511,0 0.472667,0.0241 0.241157,0.0193 0.477491,0.0627 0.236333,0.0386 0.453374,0.0965 0.221864,0.0579 0.419613,0.13023 l 0.327973,0.89228 -0.03859,0.0193 q -0.188102,-0.16881 -0.434082,-0.31351 -0.24598,-0.14469 -0.525722,-0.2508 -0.279741,-0.10611 -0.588422,-0.16399 -0.303857,-0.0627 -0.617361,-0.0627 -0.607715,0 -1.114144,0.19293 -0.506429,0.1881 -0.872987,0.54984 -0.361735,0.36173 -0.564307,0.88745 -0.202572,0.52572 -0.202572,1.19614 0,0.73794 0.192926,1.36977 0.192925,0.63183 0.573953,1.09485 0.381027,0.46302 0.950157,0.72829 0.573953,0.26045 1.336008,0.26045 0.33762,0 0.602892,-0.053 0.265272,-0.0531 0.448551,-0.13023 0.183279,-0.082 0.274919,-0.17363 0.09646,-0.0965 0.09646,-0.17363 v -0.1881 q 0,-0.33762 -0.0096,-0.5836 -0.0096,-0.24598 -0.02894,-0.42444 -0.01929,-0.18328 -0.04341,-0.3135 -0.02412,-0.13023 -0.05788,-0.24116 v -0.0193 h 1.157552 v 0.0193 q -0.02894,0.10129 -0.05788,0.24116 -0.02411,0.13505 -0.04341,0.32315 -0.01929,0.1881 -0.02894,0.44373 -0.0096,0.2508 -0.0096,0.5836 z"
         style="font-style:normal;font-variant:normal;font-weight:normal;font-stretch:normal;font-size:9.87777805px;font-family:Marcellus;-inkscape-font-specification:Marcellus;fill:#000039;fill-opacity:1;stroke-width:0.26458332"
         id="path867" />
      <path
         d="m 34.045114,279.991 q 0,-0.31833 -0.06752,-0.54984 -0.0627,-0.23151 -0.188102,-0.38103 -0.120578,-0.15434 -0.294211,-0.22668 -0.173633,-0.0772 -0.385851,-0.0772 -0.144694,0 -0.32315,0.0579 -0.178456,0.0579 -0.371381,0.15917 -0.188102,0.0965 -0.381028,0.22668 -0.188102,0.13023 -0.356911,0.27975 -0.0096,0.15434 -0.0096,0.33279 0,0.17364 0,0.37621 v 1.1672 q 0,0.40996 0.0096,0.71864 0.0096,0.30386 0.02894,0.52572 0.01929,0.22187 0.04341,0.37139 0.02411,0.14951 0.05305,0.2508 v 0.0193 h -1.114144 v -0.0193 q 0.02894,-0.10129 0.05306,-0.2508 0.02894,-0.14952 0.04341,-0.37139 0.01929,-0.22186 0.02894,-0.52572 0.01447,-0.30868 0.01447,-0.71864 v -1.1672 q 0,-0.40997 -0.01447,-0.71383 -0.0096,-0.30868 -0.02894,-0.53054 -0.01447,-0.22187 -0.04341,-0.37138 -0.02412,-0.14952 -0.05306,-0.25081 v -0.0193 h 1.114144 v 0.0193 q -0.03859,0.11094 -0.0627,0.28457 -0.01929,0.16881 -0.04341,0.42926 0.192925,-0.15434 0.41479,-0.30386 0.221864,-0.14952 0.453374,-0.26527 0.236334,-0.11576 0.472667,-0.1881 0.236334,-0.0724 0.467844,-0.0724 0.274919,0 0.487137,0.0724 0.212218,0.0723 0.371381,0.19774 0.159164,0.12541 0.265272,0.29422 0.110933,0.16881 0.16881,0.36173 0.197749,-0.16881 0.429259,-0.3328 0.236334,-0.16881 0.482313,-0.29903 0.250803,-0.13022 0.50643,-0.21222 0.260449,-0.082 0.506429,-0.082 0.376204,0 0.636653,0.13022 0.265273,0.13023 0.429259,0.34245 0.16881,0.21221 0.241157,0.48713 0.07717,0.2701 0.07717,0.54984 v 1.63987 q 0,0.40996 0.0096,0.71864 0.0096,0.30386 0.02894,0.52572 0.01929,0.22187 0.04341,0.37139 0.02894,0.14951 0.05788,0.2508 v 0.0193 h -1.118967 v -0.0193 q 0.02894,-0.10129 0.05305,-0.2508 0.02894,-0.14952 0.04823,-0.37139 0.01929,-0.22186 0.02894,-0.52572 0.0096,-0.30868 0.0096,-0.71864 V 279.991 q 0,-0.63666 -0.255626,-0.93569 -0.255627,-0.29903 -0.684885,-0.29903 -0.149518,0 -0.332797,0.0579 -0.178456,0.0579 -0.371381,0.15917 -0.192925,0.10128 -0.385851,0.23633 -0.192925,0.13023 -0.361735,0.27974 0.0096,0.0579 0.0096,0.11576 0,0.0579 0,0.11093 v 1.63987 q 0,0.40996 0.0096,0.71864 0.01447,0.30386 0.02894,0.52572 0.01929,0.22187 0.04341,0.37139 0.02894,0.14951 0.05788,0.2508 v 0.0193 h -1.114143 v -0.0193 q 0.02894,-0.10129 0.05305,-0.2508 0.02412,-0.14952 0.04341,-0.37139 0.01929,-0.22186 0.02894,-0.52572 0.0096,-0.30868 0.0096,-0.71864 z"
         style="font-style:normal;font-variant:normal;font-weight:normal;font-stretch:normal;font-size:9.87777805px;font-family:Marcellus;-inkscape-font-specification:Marcellus;fill:#000039;fill-opacity:1;stroke-width:0.26458332"
         id="path869" />
      <path
         d="m 39.596542,280.18875 q 0,-0.40997 -0.01447,-0.71383 -0.0096,-0.30868 -0.02894,-0.53054 -0.01447,-0.22187 -0.04341,-0.37138 -0.02412,-0.14952 -0.05306,-0.25081 v -0.0193 h 1.114144 v 0.0193 q -0.02894,0.10129 -0.05305,0.25081 -0.02412,0.14951 -0.04341,0.37138 -0.01929,0.22186 -0.02894,0.53054 -0.0096,0.30386 -0.0096,0.71383 v 1.1672 q 0,0.40996 0.0096,0.71864 0.0096,0.30386 0.02894,0.52572 0.01929,0.22187 0.04341,0.37139 0.02412,0.14951 0.05305,0.2508 v 0.0193 h -1.114144 v -0.0193 q 0.02894,-0.10129 0.05306,-0.2508 0.02894,-0.14952 0.04341,-0.37139 0.01929,-0.22186 0.02894,-0.52572 0.01447,-0.30868 0.01447,-0.71864 z m -0.101286,-3.34726 q 0,-0.10611 0.03859,-0.19775 0.04341,-0.0965 0.110932,-0.16398 0.06752,-0.0723 0.159164,-0.11093 0.09646,-0.0434 0.207394,-0.0434 0.110933,0 0.202572,0.0434 0.09646,0.0386 0.163987,0.11093 0.07235,0.0675 0.110932,0.16398 0.04341,0.0916 0.04341,0.19775 0,0.22187 -0.149517,0.37138 -0.149517,0.14952 -0.371382,0.14952 -0.110932,0 -0.207394,-0.0386 -0.09164,-0.0434 -0.159164,-0.11094 -0.06752,-0.0723 -0.110932,-0.16398 -0.03859,-0.0965 -0.03859,-0.2074 z"
         style="font-style:normal;font-variant:normal;font-weight:normal;font-stretch:normal;font-size:9.87777805px;font-family:Marcellus;-inkscape-font-specification:Marcellus;fill:#000039;fill-opacity:1;stroke-width:0.26458332"
         id="path871" />
      <path
         d="m 45.278192,279.991 q 0,-0.63666 -0.255626,-0.93569 -0.255626,-0.29903 -0.684885,-0.29903 -0.15434,0 -0.347266,0.0675 -0.192925,0.0627 -0.395497,0.17363 -0.202571,0.10611 -0.405143,0.25081 -0.202571,0.14469 -0.381027,0.30868 l -0.0096,0.63183 v 1.1672 q 0,0.40996 0.0096,0.71864 0.0096,0.30386 0.02894,0.52572 0.01929,0.22187 0.04341,0.37139 0.02411,0.14951 0.05305,0.2508 v 0.0193 h -1.114144 v -0.0193 q 0.02894,-0.10129 0.05306,-0.2508 0.02894,-0.14952 0.04341,-0.37139 0.01929,-0.22186 0.02894,-0.52572 0.01447,-0.30868 0.01447,-0.71864 v -1.1672 q 0,-0.40997 -0.01447,-0.71383 -0.0096,-0.30868 -0.02894,-0.53054 -0.01447,-0.22187 -0.04341,-0.37138 -0.02412,-0.14952 -0.05306,-0.25081 v -0.0193 h 1.114144 v 0.0193 q -0.03858,0.12058 -0.0627,0.30868 -0.01929,0.18328 -0.04341,0.48232 0.197749,-0.16399 0.424436,-0.32797 0.23151,-0.16399 0.47749,-0.28939 0.24598,-0.13023 0.501606,-0.2074 0.255626,-0.082 0.501606,-0.082 0.376204,0 0.636654,0.13022 0.265272,0.13023 0.429259,0.34245 0.168809,0.21221 0.241156,0.48713 0.07717,0.2701 0.07717,0.54984 v 1.63987 q 0,0.40996 0.0096,0.71864 0.0096,0.30386 0.02894,0.52572 0.01929,0.22187 0.04341,0.37139 0.02412,0.14951 0.05305,0.2508 v 0.0193 h -1.114144 v -0.0193 q 0.02894,-0.10129 0.05306,-0.2508 0.02894,-0.14952 0.04341,-0.37139 0.01929,-0.22186 0.02894,-0.52572 0.01447,-0.30868 0.01447,-0.71864 z"
         style="font-style:normal;font-variant:normal;font-weight:normal;font-stretch:normal;font-size:9.87777805px;font-family:Marcellus;-inkscape-font-specification:Marcellus;fill:#000039;fill-opacity:1;stroke-width:0.26458332"
         id="path873" />
      <path
         d="m 47.188154,281.81897 q 0,-0.38103 0.15434,-0.66077 0.159163,-0.27974 0.419612,-0.47749 0.26045,-0.19775 0.593246,-0.31833 0.332796,-0.1254 0.689708,-0.19293 0.356912,-0.0723 0.704178,-0.0965 0.347265,-0.0289 0.636653,-0.0338 v -0.24598 q 0,-0.31833 -0.08199,-0.54984 -0.08199,-0.23151 -0.23151,-0.38102 -0.149518,-0.15435 -0.361736,-0.22669 -0.207394,-0.0772 -0.458197,-0.0772 -0.173633,0 -0.342443,0.0289 -0.168809,0.0289 -0.352088,0.0965 -0.178456,0.0675 -0.381028,0.18328 -0.197749,0.11575 -0.429259,0.29421 l -0.04823,-0.0289 0.327973,-0.68006 q 0.159163,-0.0724 0.313503,-0.11576 0.154341,-0.0482 0.313504,-0.0772 0.159164,-0.0289 0.32315,-0.0386 0.16881,-0.0145 0.352089,-0.0145 0.506429,0 0.863341,0.1254 0.361735,0.12058 0.588422,0.33762 0.231511,0.21222 0.33762,0.50161 0.106109,0.28456 0.106109,0.61253 v 1.57235 q 0,0.40996 0.0096,0.71864 0.01447,0.30386 0.02894,0.52572 0.01929,0.22187 0.04341,0.37139 0.02894,0.14951 0.05788,0.2508 v 0.0193 h -1.065912 v -0.0193 q 0.02411,-0.0772 0.03376,-0.17363 0.01447,-0.0965 0.02412,-0.23152 -0.101285,0.0868 -0.241156,0.17846 -0.135048,0.0916 -0.313504,0.16881 -0.173633,0.0723 -0.390674,0.11576 -0.212218,0.0482 -0.467844,0.0482 -0.839225,0 -1.297423,-0.39068 -0.458197,-0.39549 -0.458197,-1.11896 z m 3.197737,-1.40354 q -0.438905,0.005 -0.844048,0.0531 -0.405143,0.0434 -0.718647,0.1881 -0.308681,0.1447 -0.496783,0.41479 -0.183279,0.26527 -0.183279,0.709 0,0.56913 0.284565,0.86817 0.284565,0.29903 0.786171,0.29903 0.23151,0 0.419612,-0.0627 0.192926,-0.0675 0.33762,-0.16399 0.149517,-0.10128 0.250803,-0.21704 0.101285,-0.12058 0.15434,-0.23151 0.0096,-0.18328 0.0096,-0.40514 0,-0.22669 0,-0.51125 z"
         style="font-style:normal;font-variant:normal;font-weight:normal;font-stretch:normal;font-size:9.87777805px;font-family:Marcellus;-inkscape-font-specification:Marcellus;fill:#000039;fill-opacity:1;stroke-width:0.26458332"
         id="path875" />
    </g>
    <g
       aria-label="Miedzna"
       style="font-style:normal;font-weight:normal;font-size:10.58333302px;line-height:1.25;font-family:sans-serif;letter-spacing:0px;word-spacing:0px;fill:#000000;fill-opacity:1;stroke:none;stroke-width:0.26458332"
       id="text4603">
      <path
         d="m 22.621862,293.80299 q 0.06063,-0.0882 0.137804,-0.25907 0.07717,-0.17639 0.121267,-0.44097 0.06063,-0.38585 0.132292,-0.86541 0.07717,-0.48507 0.15434,-1.01423 0.08268,-0.52917 0.159853,-1.08039 0.08268,-0.55672 0.15434,-1.0914 0.07717,-0.54019 0.143316,-1.03629 0.07166,-0.5016 0.126779,-0.91501 0.05512,-0.41342 0.08819,-0.71658 0.03859,-0.30868 0.05512,-0.46302 h 0.700044 l 3.467144,6.48229 3.439583,-6.48229 h 0.523655 l 0.903993,6.54843 q 0.03858,0.30868 0.08268,0.52917 0.0441,0.22049 0.08819,0.38034 0.0441,0.15434 0.08268,0.25907 0.0441,0.0992 0.08268,0.16536 v 0.022 h -1.389062 v -0.022 q 0.02756,-0.0606 0.04961,-0.19843 0.02756,-0.13781 0.02756,-0.33073 0,-0.0717 -0.0055,-0.14332 -0.0055,-0.0772 -0.01654,-0.16536 l -0.700043,-5.28065 -3.25217,6.11849 -0.380339,-0.0441 -3.274219,-6.12952 q -0.192925,1.30638 -0.336241,2.41433 -0.06063,0.47404 -0.121267,0.94809 -0.06063,0.46853 -0.110243,0.87643 -0.0441,0.4079 -0.07166,0.72209 -0.02756,0.30868 -0.02756,0.45751 0,0.18741 0.01102,0.33073 0.01102,0.14331 0.02205,0.24253 0.01654,0.11576 0.03307,0.20395 h -1.102431 z"
         style="font-style:normal;font-variant:normal;font-weight:normal;font-stretch:normal;font-size:11.28888893px;font-family:Marcellus;-inkscape-font-specification:Marcellus;fill:#00002f;fill-opacity:1;stroke-width:0.26458332"
         id="path851" />
      <path
         d="m 34.594258,290.33585 q 0,-0.46853 -0.01654,-0.8158 -0.01103,-0.35278 -0.03307,-0.60634 -0.01654,-0.25355 -0.04961,-0.42443 -0.02756,-0.17088 -0.06063,-0.28663 v -0.022 h 1.273307 v 0.022 q -0.03307,0.11575 -0.06063,0.28663 -0.02756,0.17088 -0.04961,0.42443 -0.02205,0.25356 -0.03307,0.60634 -0.01102,0.34727 -0.01102,0.8158 v 1.33394 q 0,0.46853 0.01102,0.82131 0.01102,0.34727 0.03307,0.60083 0.02205,0.25356 0.04961,0.42443 0.02756,0.17088 0.06063,0.28663 v 0.022 h -1.273307 v -0.022 q 0.03307,-0.11575 0.06063,-0.28663 0.03307,-0.17087 0.04961,-0.42443 0.02205,-0.25356 0.03307,-0.60083 0.01654,-0.35278 0.01654,-0.82131 z m -0.115755,-3.82543 q 0,-0.12127 0.0441,-0.226 0.04961,-0.11025 0.12678,-0.18742 0.07717,-0.0827 0.181901,-0.12678 0.110243,-0.0496 0.237022,-0.0496 0.12678,0 0.231511,0.0496 0.110243,0.0441 0.187413,0.12678 0.08268,0.0772 0.126779,0.18742 0.04961,0.10473 0.04961,0.226 0,0.25355 -0.170877,0.42443 -0.170877,0.17088 -0.424436,0.17088 -0.126779,0 -0.237022,-0.0441 -0.104731,-0.0496 -0.181901,-0.12678 -0.07717,-0.0827 -0.12678,-0.18741 -0.0441,-0.11024 -0.0441,-0.23702 z"
         style="font-style:normal;font-variant:normal;font-weight:normal;font-stretch:normal;font-size:11.28888893px;font-family:Marcellus;-inkscape-font-specification:Marcellus;fill:#00002f;fill-opacity:1;stroke-width:0.26458332"
         id="path853" />
      <path
         d="m 39.764657,293.92426 q -0.611848,0 -1.146527,-0.19292 -0.534679,-0.19293 -0.931554,-0.56224 -0.396875,-0.37483 -0.628386,-0.92053 -0.225998,-0.55122 -0.225998,-1.25677 0,-0.62288 0.209462,-1.15204 0.209462,-0.53468 0.578776,-0.92605 0.369314,-0.39136 0.859896,-0.61184 0.496094,-0.22049 1.069358,-0.22049 0.567751,0 1.052821,0.19844 0.485069,0.19292 0.837847,0.56775 0.35829,0.36931 0.56224,0.92053 0.209461,0.5457 0.225998,1.24574 -0.622873,-0.011 -1.245747,-0.0165 -0.622873,-0.006 -1.295356,-0.006 -0.479557,0 -0.937066,0.006 -0.451996,0.006 -0.815798,0.0165 0.03307,0.57327 0.176389,1.03629 0.148828,0.46302 0.402387,0.79375 0.259071,0.32522 0.622873,0.50161 0.369314,0.17638 0.832335,0.17638 0.319705,0 0.600825,-0.0716 0.286632,-0.0772 0.518142,-0.20947 0.231511,-0.13229 0.413412,-0.30868 0.181901,-0.1819 0.30868,-0.39136 l 0.06615,0.0331 -0.407899,0.98117 q -0.297657,0.15434 -0.711068,0.26458 -0.413411,0.10473 -0.992188,0.10473 z m -0.733116,-3.36241 q 0.551215,0 1.102431,0 0.556727,-0.006 1.008724,-0.022 -0.04961,-0.47956 -0.187413,-0.8599 -0.137804,-0.38033 -0.352778,-0.64492 -0.214974,-0.26458 -0.507118,-0.4079 -0.292144,-0.14331 -0.644922,-0.14331 -0.319705,0 -0.589801,0.14331 -0.264583,0.13781 -0.46302,0.40239 -0.198438,0.26458 -0.319705,0.65043 -0.121268,0.38034 -0.143316,0.87092 0.248047,0.011 0.523654,0.011 0.275608,0 0.573264,0 z"
         style="font-style:normal;font-variant:normal;font-weight:normal;font-stretch:normal;font-size:11.28888893px;font-family:Marcellus;-inkscape-font-specification:Marcellus;fill:#00002f;fill-opacity:1;stroke-width:0.26458332"
         id="path855" />
      <path
         d="m 45.938268,288.08138 q 0.225999,0 0.451997,0.0386 0.225998,0.0386 0.440972,0.11025 0.214974,0.0717 0.4079,0.17639 0.192925,0.10473 0.347265,0.23702 v -0.90399 q 0,-0.46854 -0.01102,-0.8158 -0.01102,-0.35278 -0.03307,-0.60634 -0.02205,-0.25356 -0.04961,-0.42444 -0.02756,-0.17087 -0.06063,-0.28663 v -0.0221 h 1.273307 v 0.0221 q -0.03307,0.11576 -0.06615,0.28663 -0.02756,0.17088 -0.04961,0.42444 -0.01654,0.25356 -0.03307,0.60634 -0.01102,0.34726 -0.01102,0.8158 v 3.93016 q 0,0.46853 0.01102,0.82131 0.01654,0.34727 0.03307,0.60083 0.02205,0.25356 0.04961,0.42443 0.03307,0.17088 0.06615,0.28663 v 0.022 h -1.218186 v -0.022 q 0.01654,-0.0441 0.02756,-0.12678 0.01102,-0.0882 0.02756,-0.21497 -0.28112,0.17639 -0.705556,0.31971 -0.424435,0.14331 -0.986675,0.14331 -0.655946,0 -1.190625,-0.20395 -0.534679,-0.20395 -0.915017,-0.58429 -0.374827,-0.38033 -0.578776,-0.92053 -0.20395,-0.5457 -0.20395,-1.22369 0,-0.62288 0.220486,-1.15204 0.220486,-0.53468 0.617361,-0.92605 0.396875,-0.39136 0.942578,-0.61184 0.545703,-0.22049 1.196137,-0.22049 z m 1.648134,1.53238 q -0.220486,-0.57878 -0.633897,-0.85439 -0.4079,-0.2756 -0.92053,-0.2756 -0.429948,0 -0.79375,0.15434 -0.363802,0.14883 -0.622873,0.43546 -0.259071,0.28663 -0.4079,0.70555 -0.143315,0.41341 -0.143315,0.94258 0,0.59531 0.132291,1.10794 0.132292,0.51263 0.385851,0.89297 0.259071,0.37483 0.63941,0.5898 0.380338,0.20946 0.876432,0.20946 0.259071,0 0.485069,-0.0606 0.225999,-0.0606 0.413412,-0.15434 0.187413,-0.0937 0.330729,-0.20395 0.143316,-0.11575 0.237023,-0.226 0.01102,-0.23702 0.01654,-0.54019 0.0055,-0.30317 0.0055,-0.66697 z"
         style="font-style:normal;font-variant:normal;font-weight:normal;font-stretch:normal;font-size:11.28888893px;font-family:Marcellus;-inkscape-font-specification:Marcellus;fill:#00002f;fill-opacity:1;stroke-width:0.26458332"
         id="path857" />
      <path
         d="m 50.799987,293.39509 h 1.637109 q 0.429948,0 0.79375,-0.0441 0.363803,-0.0496 0.628386,-0.11025 0.30868,-0.0661 0.562239,-0.15985 l -0.248046,0.78824 q -0.06615,-0.006 -0.231511,-0.0165 -0.159852,-0.006 -0.341753,-0.0165 -0.176389,-0.006 -0.336242,-0.011 -0.159852,0 -0.214974,0 H 49.47707 v -0.1378 l 3.560851,-5.07669 h -1.15204 q -0.457509,0 -0.843359,0.0496 -0.380339,0.0496 -0.661459,0.11024 -0.330729,0.0661 -0.595312,0.15434 l 0.35829,-0.78824 q 0.06615,0.011 0.225998,0.0165 0.165365,0.006 0.347266,0.0165 0.181901,0.006 0.336241,0.011 0.159853,0 0.220486,0 h 3.103342 v 0.0992 z"
         style="font-style:normal;font-variant:normal;font-weight:normal;font-stretch:normal;font-size:11.28888893px;font-family:Marcellus;-inkscape-font-specification:Marcellus;fill:#00002f;fill-opacity:1;stroke-width:0.26458332"
         id="path859" />
      <path
         d="m 59.299726,290.10985 q 0,-0.7276 -0.292144,-1.06936 -0.292144,-0.34175 -0.782726,-0.34175 -0.176389,0 -0.396875,0.0772 -0.220486,0.0717 -0.451997,0.19844 -0.23151,0.12127 -0.46302,0.28663 -0.231511,0.16536 -0.435461,0.35278 l -0.01102,0.72209 v 1.33394 q 0,0.46853 0.01102,0.82131 0.01103,0.34727 0.03307,0.60083 0.02205,0.25356 0.04961,0.42443 0.02756,0.17088 0.06063,0.28663 v 0.022 h -1.273307 v -0.022 q 0.03307,-0.11575 0.06063,-0.28663 0.03307,-0.17087 0.04961,-0.42443 0.02205,-0.25356 0.03307,-0.60083 0.01654,-0.35278 0.01654,-0.82131 v -1.33394 q 0,-0.46853 -0.01654,-0.8158 -0.01102,-0.35278 -0.03307,-0.60634 -0.01654,-0.25355 -0.04961,-0.42443 -0.02756,-0.17088 -0.06063,-0.28663 v -0.022 h 1.273307 v 0.022 q -0.0441,0.1378 -0.07166,0.35277 -0.02205,0.20947 -0.04961,0.55122 0.225998,-0.18741 0.48507,-0.37483 0.264583,-0.18741 0.545703,-0.33073 0.281119,-0.14882 0.573264,-0.23702 0.292144,-0.0937 0.573263,-0.0937 0.429948,0 0.727605,0.14882 0.303168,0.14883 0.490581,0.39137 0.192926,0.24253 0.275608,0.55672 0.08819,0.30868 0.08819,0.62839 v 1.87413 q 0,0.46853 0.01103,0.82131 0.01102,0.34727 0.03307,0.60083 0.02205,0.25356 0.04961,0.42443 0.02756,0.17088 0.06063,0.28663 v 0.022 h -1.273308 v -0.022 q 0.03307,-0.11575 0.06063,-0.28663 0.03307,-0.17087 0.04961,-0.42443 0.02205,-0.25356 0.03307,-0.60083 0.01654,-0.35278 0.01654,-0.82131 z"
         style="font-style:normal;font-variant:normal;font-weight:normal;font-stretch:normal;font-size:11.28888893px;font-family:Marcellus;-inkscape-font-specification:Marcellus;fill:#00002f;fill-opacity:1;stroke-width:0.26458332"
         id="path861" />
      <path
         d="m 61.482538,292.19896 q 0,-0.43546 0.176389,-0.75517 0.181901,-0.3197 0.479557,-0.5457 0.297656,-0.226 0.677995,-0.3638 0.380338,-0.14332 0.788238,-0.22049 0.407899,-0.0827 0.804774,-0.11024 0.396875,-0.0331 0.727604,-0.0386 v -0.28112 q 0,-0.3638 -0.09371,-0.62838 -0.09371,-0.26459 -0.264583,-0.43546 -0.170877,-0.17639 -0.413411,-0.25907 -0.237023,-0.0882 -0.523655,-0.0882 -0.198437,0 -0.391363,0.0331 -0.192925,0.0331 -0.402387,0.11024 -0.20395,0.0772 -0.43546,0.20946 -0.225998,0.13229 -0.490582,0.33624 l -0.05512,-0.0331 0.374826,-0.77722 q 0.181901,-0.0827 0.35829,-0.13229 0.176389,-0.0551 0.35829,-0.0882 0.181901,-0.0331 0.369314,-0.0441 0.192926,-0.0165 0.402388,-0.0165 0.578776,0 0.986675,0.14331 0.413411,0.1378 0.672483,0.38585 0.264583,0.24254 0.38585,0.57327 0.121268,0.32521 0.121268,0.70004 v 1.79696 q 0,0.46853 0.01102,0.82131 0.01654,0.34727 0.03307,0.60083 0.02205,0.25356 0.04961,0.42443 0.03307,0.17088 0.06615,0.28663 v 0.022 h -1.218186 v -0.022 q 0.02756,-0.0882 0.03858,-0.19843 0.01654,-0.11025 0.02756,-0.26459 -0.115755,0.0992 -0.275608,0.20395 -0.15434,0.10473 -0.35829,0.19293 -0.198437,0.0827 -0.446484,0.13229 -0.242535,0.0551 -0.534679,0.0551 -0.959114,0 -1.482769,-0.44648 -0.523654,-0.452 -0.523654,-1.27882 z m 3.654557,-1.60404 q -0.501606,0.006 -0.964627,0.0606 -0.463021,0.0496 -0.821311,0.21498 -0.352777,0.16536 -0.567751,0.47404 -0.209462,0.30317 -0.209462,0.81029 0,0.65043 0.325217,0.99219 0.325217,0.34175 0.898481,0.34175 0.264583,0 0.479557,-0.0717 0.220486,-0.0772 0.385851,-0.18741 0.170877,-0.11575 0.286632,-0.24805 0.115755,-0.1378 0.176389,-0.26458 0.01102,-0.20946 0.01102,-0.46302 0,-0.25907 0,-0.58429 z"
         style="font-style:normal;font-variant:normal;font-weight:normal;font-stretch:normal;font-size:11.28888893px;font-family:Marcellus;-inkscape-font-specification:Marcellus;fill:#00002f;fill-opacity:1;stroke-width:0.26458332"
         id="path863" />
    </g>
    <g
       id="layer1-1"
       inkscape:label="Layer 1"
       transform="matrix(0.13266388,0,0,0.13266388,3.5958219,256.2496)">
      <path
         sodipodi:nodetypes="ccssscsccccccccccc"
         style="fill:#ffcb29;fill-opacity:1;stroke-width:0.26458332"
         d="m 56.384101,296.65615 c -3.482962,-0.42576 -7.033993,-1.00539 -8.975635,-1.46509 -10.368028,-2.45474 -20.36648,-7.6389 -27.860075,-14.44535 C 8.8080961,270.99027 2.3789661,258.8844 0.54350814,244.96005 c -0.480854,-3.64791 -0.505952,-6.06981 -0.510681,-49.27865 -0.0049,-45.09276 -9.04e-4,-45.44625 0.524194,-45.97135 0.52608496,-0.52608 0.88194396,-0.52917 61.09954286,-0.52917 h 60.570376 l 0.55613,0.70701 0.55614,0.70702 -0.0866,46.19038 c -0.08,42.62439 -0.1227,46.41363 -0.55376,49.08204 -1.60088,9.90989 -5.61762,19.30225 -11.48376,26.85253 -2.18279,2.80945 -6.66162,7.45137 -9.38815,9.72999 -6.582918,5.5015 -15.599458,10.11701 -23.990368,12.28051 -5.455083,1.40654 -8.898159,1.85531 -14.97015,1.95122 -3.055937,0.0483 -5.972968,0.0368 -6.482291,-0.0254 z"
         id="path838-2"
         inkscape:connector-curvature="0" />
      <path
         style="fill:#c96d2e;fill-opacity:1;stroke-width:0.26458332"
         d="M 58.368476,296.63981 C 44.089255,295.74186 31.076992,290.51869 20.533061,281.45256 10.3125,272.66446 3.4371711,260.88176 1.1171721,248.17827 0.08544314,242.52889 -0.00326186,237.80948 0.08028614,193.01218 l 0.07986,-42.81975 0.627403,-0.50802 c 0.61515896,-0.49811 1.80579796,-0.50669 61.01195286,-0.43963 50.718058,0.0575 60.454588,0.12652 60.822068,0.43152 0.4039,0.33522 0.43752,3.8878 0.43752,46.22239 0,50.39439 0.051,48.64586 -1.61566,55.41136 -2.48989,10.10731 -7.70339,19.33091 -15.18538,26.86562 -5.13571,5.17191 -10.289718,8.89183 -16.668748,12.03071 -7.479829,3.68055 -14.986444,5.69127 -23.680202,6.34296 -3.432463,0.25731 -4.654446,0.27197 -7.540624,0.0905 z m -8.334375,-94.01582 c 0,-0.23409 -2.777855,-1.3874 -4.365625,-1.81252 -2.288521,-0.61274 -5.767979,-0.83222 -8.656713,-0.54603 -3.126206,0.30971 -8.178863,1.53884 -8.342384,2.0294 -0.200469,0.60141 1.229424,0.63746 3.428849,0.0865 4.748906,-1.18971 10.165326,-1.16456 14.776079,0.0686 2.12676,0.56881 3.159794,0.62572 3.159794,0.17408 z m -12.982935,-3.27037 c 3.587785,-0.36821 6.986414,0.12179 9.985479,1.12856 2.322777,0.77973 2.528188,0.51427 2.991151,-0.0815 0.597453,-0.76882 2.929458,-4.90371 2.814655,-5.01851 -0.05886,-0.0589 -1.222096,0.49505 -1.931655,0.99953 -1.678601,1.19344 -2.241827,1.31421 -2.963669,0.14626 -0.299923,-0.48529 -0.74297,-1.637 -0.908112,-2.42501 -0.165145,-0.78802 -0.549542,-2.01296 -0.60398,-2.20238 -0.05649,-0.19657 -0.824298,0.87192 -1.474633,1.67254 -0.626679,0.7715 -1.231715,1.36435 -1.74875,1.64469 -0.938626,0.50891 -0.972812,0.59542 -1.789221,0.0141 -0.449714,-0.32023 -1.233731,-1.65686 -1.626767,-2.4602 l -0.683115,-1.07475 -0.666585,0.90734 c -0.894098,1.5655 -2.238134,3.3732 -2.771092,3.3732 -0.218054,0 -0.924085,-0.44224 -1.655573,-1.2426 -0.731486,-0.80037 -1.588558,-2.05904 -1.665441,-2.05904 -0.07688,0 -0.286876,1.18418 -0.388198,1.72989 -0.246314,1.32659 -0.991629,2.74304 -1.513157,3.17587 -0.520258,0.43177 -1.224477,0.26539 -2.688178,-0.72786 -0.533543,-0.36207 -1.771524,-0.95142 -1.836751,-0.88619 -0.146762,0.14676 1.844461,4.15168 2.347095,4.72353 0.332859,0.37869 0.617585,0.10856 3.079144,-0.44826 1.978299,-0.41897 3.828945,-0.68148 5.697353,-0.88925 z m 78.968274,-8.71709 c -0.0666,-0.0666 -1.44202,0.22843 -2.55298,0.51942 -4.73391,1.23993 -7.77084,1.42111 -10.13724,0.21385 -0.95053,-0.48492 -2.26678,-1.85454 -2.26678,-2.29651 0,-0.53909 0.51027,-1.09835 2.04405,-1.95609 0.94804,-0.53017 3.63348,-2.00528 3.57212,-2.06664 -0.16985,-0.16985 -4.70398,1.17731 -7.149948,2.43391 -2.30422,0.66968 -2.22841,0.99203 -4.91361,1.34491 -4.77689,-0.006 -9.387987,-1.89707 -7.69442,-3.04265 0.2378,-0.16086 0.73451,-0.38429 1.32158,-0.7415 1.05115,-0.63962 2.58372,-2.70537 2.22941,-3.26013 -0.081,-0.081 -1.06245,0.61299 -2.05808,0.93014 -2.55428,0.81363 -7.940882,0.82566 -10.333609,0.20336 -2.118448,-0.55096 -5.040302,-1.89891 -6.580354,-3.03574 -1.479143,-1.09187 -0.34759,-1.15683 3.2847,-2.24881 1.516948,-0.45605 3.060747,-1.34259 3.119051,-1.40089 0.0583,-0.0583 -3.188108,0.17231 -5.789833,0.25271 -5.363741,0.16569 -7.509987,-0.0769 -10.347297,-1.44288 -2.299991,-1.10729 -2.801907,-1.60565 -2.447411,-2.1788 0.156655,-0.25328 0.509123,-0.528 0.91937,-0.63772 1.120709,-0.29972 2.392583,-1.29944 2.985173,-2.88327 0.29146,-0.779 0.351749,-2.17369 0.351749,-2.39153 0,-0.21784 -1.389236,0.58989 -2.37942,1.57717 -2.442231,2.43508 -3.472725,3.04784 -5.829252,2.96571 -0.997032,-0.0348 -2.164419,-0.27094 -2.703079,-0.41599 -1.972418,-0.53111 -3.751886,-2.80166 -4.361397,-5.45303 -0.100359,-0.43656 -0.543751,-1.12856 -0.604208,-0.96612 -0.266835,0.71692 -1.252983,7.06145 -1.120565,7.26554 0,0 0.815965,0.26353 1.252528,0.336 1.718368,0.28523 6.648042,1.9124 8.025246,2.62592 0.882727,0.45734 2.426295,0.81369 3.946478,1.10585 1.49381,0.2871 3.240476,0.74289 4.156172,1.08465 0.915696,0.34176 2.442055,0.69094 3.198615,0.7965 1.000712,0.13964 1.170637,0.23145 1.705176,1.12651 0.26727,1.02135 1.258216,2.59354 3.201559,3.51172 1.283584,0.60647 10.822392,3.24772 11.662198,3.24772 0.05375,0 0.65816,0.87267 1.425309,1.63941 2.029271,2.02818 4.324781,2.71578 9.927911,2.847 2.47386,0.0579 4.04271,0.0138 4.33375,0.0773 0.29105,0.0636 1.024108,0.66781 2.115518,1.61638 1.0914,0.94857 2.44949,1.43393 3.03157,1.65023 1.46668,0.54502 3.53906,0.19432 5.46381,-0.11318 1.92475,-0.3075 6.07806,-1.94956 5.99644,-2.84046 z M 73.978891,170.27779 c 1.581981,0.18645 3.552621,0.23562 4.901041,0.12228 1.240364,-0.10426 2.847708,-0.0969 3.571875,0.0165 4.263585,0.66711 9.568455,0.26089 12.621785,-1.28638 1.17045,-0.59312 1.73398,-0.64729 4.02925,-0.64729 3.076478,0 5.507908,-0.84512 7.866328,-2.26565 1.69355,-1.02006 4.81383,-3.96909 4.62688,-4.15603 -0.0648,-0.0648 -1.45964,0.64294 -2.31013,1.21895 -3.4566,2.34103 -6.93567,3.82324 -9.971068,3.89784 -2.23813,0.055 -2.30198,0.004 -1.55237,-1.07171 0.74793,-1.07332 0.66081,-2.17652 0.82345,-4.18521 0.11471,-1.41688 0.086,-2.41847 -0.14744,-1.88595 -1.0663,2.43266 -1.79761,4.37964 -2.8496,5.30564 -2.38204,2.09676 -5.91238,3.50743 -9.93532,3.79779 -2.088361,0.15073 -1.882943,0.0354 -0.303356,-0.98358 1.702266,-1.0457 2.710066,-3.8702 2.879316,-6.80876 l -0.36673,-2.20694 -0.93047,2.26504 c -1.02533,2.05418 -2.447315,4.55441 -4.241801,5.46989 -1.645327,0.83938 -4.444298,1.35402 -6.617662,1.35402 -3.627736,0 -4.31956,0.0386 -3.051859,-1.32923 0.847817,-0.91481 2.476469,-6.32679 1.544967,-6.3936 -0.09854,0 -0.64069,0.79858 -0.959769,1.36631 -1.557687,2.77152 -5.315786,5.86296 -8.376322,6.79257 -1.539161,0.46751 -1.810305,0.77167 -2.188017,1.56374 -0.23954,0.50232 -0.374769,1.20285 -0.300508,1.20285 0.07426,0 1.314586,-0.14899 2.511278,-0.46718 2.641417,-0.6379 7.286115,-0.85057 8.726252,-0.68591 z m -15.912134,0.007 c 1.147749,-0.57507 1.770956,-1.14909 0.850003,-1.41636 -0.380498,0 -0.909007,-0.0929 -0.983918,-0.2881 -0.07491,-0.19522 -0.06743,-0.85838 0.288844,-1.93648 0.356272,-1.0781 0.995723,-3.24551 1.094336,-3.75484 0.167079,-0.86293 -0.42993,-0.54651 -1.451174,0.98842 -1.244942,1.87114 -3.56753,4.19257 -5.281641,5.1019 -0.639133,0.33906 -1.384783,0.7155 -1.384783,0.80933 0,0.30481 1.202945,0.82478 2.957648,1.01753 1.933766,0.21243 2.614134,0.12822 3.910685,-0.5214 z m -11.995106,-0.0843 c -0.07662,-0.0862 -0.685123,-0.61133 -1.303586,-0.78021 -0.618464,-0.16888 -2.071764,-0.66254 -2.848449,-1.17868 -1.62197,-1.07788 -2.302001,-1.38513 -1.94476,-0.71762 0.452175,0.8449 2.451048,2.61892 3.563057,2.80173 0.9598,0.18002 3.549601,1.01771 2.533738,-0.12522 z"
         id="path836-0"
         inkscape:connector-curvature="0"
         sodipodi:nodetypes="csssccccsccscccsccccsssccccccccccccccscsccccccccccscsccccsccscccssccscccscccccscscscccccczccscsccccsccsscccccsssccsscccscscccsccsccccccc" />
      <path
         style="fill:#1f150e;fill-opacity:1;stroke-width:0.26458332"
         d="m 58.897642,296.65581 c -10.198647,-0.729 -17.2425,-2.58901 -25.664581,-6.77703 -9.903746,-4.9248 -18.753084,-12.90481 -24.3882469,-21.99242 -4.406609,-7.10637 -7.420716,-15.66729 -8.27098596,-23.49195 -0.181931,-1.67422 -0.279343,-18.29873 -0.283631,-48.40492 -0.0059,-41.11548 0.03595,-45.89734 0.404512,-46.2656 0.36918996,-0.36889 6.57666996,-0.4097 60.96214786,-0.40078 50.581713,0.008 60.622313,0.069 60.983633,0.3689 0.39794,0.33026 0.4258,4.12801 0.34843,47.48278 -0.0911,51.07466 0.002,47.70782 -1.48279,53.89944 -5.26002,21.94217 -23.747728,39.41606 -46.83796,44.26949 -4.583316,0.96339 -12.00751,1.58107 -15.770528,1.31209 z m 10.348901,-14.12828 c -0.190563,-1.19173 0.339789,-2.49936 1.535832,-3.78673 0.553705,-0.59599 0.843844,-0.71455 1.432338,-0.58529 0.99278,0.21805 1.471311,-0.36542 1.994516,-2.4319 0.575353,-2.27244 1.194147,-3.14971 5.030423,-7.13172 1.83693,-1.9067 3.503958,-3.85699 3.70451,-4.33395 0.384686,-0.9149 0.280138,-1.59167 -0.471244,-3.05052 -0.520785,-1.01112 -1.05233,-5.9063 -0.814962,-7.50522 0.09632,-0.64886 0.580832,-1.98533 1.076682,-2.96996 0.495848,-0.98463 1.059034,-2.76642 1.059034,-3.03561 0,-0.58531 -1.066527,-3.56733 -1.893151,-5.41392 -0.725281,-1.62019 -2.685042,-4.48892 -3.596013,-5.45896 -0.657757,-0.7004 -1.195745,-0.70673 -2.130187,-0.30231 -1.364528,0.59055 -5.920405,2.23562 -6.932846,2.45441 -0.471276,0.10185 -0.477807,0.56884 -0.55348,0.69129 -0.07567,0.12244 0.04202,0.9122 0.261548,1.75502 0.503606,1.93347 0.505691,3.69614 0.0071,6.05153 -0.605769,2.86201 -0.306446,3.93488 1.697755,6.08532 3.956404,4.24509 5.651597,8.04218 5.037063,11.2826 -0.396949,2.0931 -1.279322,3.61505 -3.272676,5.64483 -1.407518,1.43324 -2.144731,2.49308 -3.224845,4.63611 -0.770115,1.52797 -2.002856,3.52287 -2.739424,4.4331 -0.736563,0.91024 -1.33921,1.83223 -1.33921,2.04886 0,0.70953 2.087174,1.98471 3.248514,1.98471 h 1.052452 z m 22.027979,-5.52593 c 0.30365,-0.19236 0.2916,-0.44236 -0.0744,-1.5444 -0.49309,-1.48454 -0.33471,-2.21649 0.80209,-3.70692 0.76326,-1.00068 1.19776,-1.05721 2.55103,-0.3319 0.54302,0.29104 1.06099,0.52917 1.15105,0.52917 0.09,0 0.0823,-0.65147 -0.0172,-1.44772 -0.13458,-1.0772 -0.0455,-1.94057 0.34798,-3.37344 0.81257,-2.95882 2.53793,-6.96474 4.141758,-9.61627 0.79805,-1.3194 1.45101,-2.47468 1.45101,-2.56731 0,-0.0926 -0.51673,-0.39699 -1.14828,-0.67635 -2.140108,-0.94668 -3.082218,-3.43469 -3.073118,-8.11579 0.008,-4.23435 0.92414,-8.52568 2.48739,-11.65429 1.025238,-2.05187 1.204408,-2.64476 1.201978,-3.97746 -0.003,-1.63611 -0.39933,-3.25649 -1.209788,-4.94607 l -0.47903,-0.99866 1.611828,-1.64717 c 0.8865,-0.90595 1.80291,-2.02822 2.03646,-2.49394 0.45543,-0.90816 0.58254,-2.9897 0.18256,-2.9897 -0.13314,0 -0.73825,0.62318 -1.34469,1.38483 -2.237498,2.81018 -3.355058,2.97233 -6.810568,0.98818 -4.1999,-2.41159 -4.52099,-2.46904 -14.092243,-2.52117 -9.062436,-0.0494 -12.999743,-0.43669 -18.42918,-1.81298 -8.820179,-2.2358 -14.379151,-6.22607 -14.379151,-10.32145 v -1.19637 l -1.357565,-0.64759 c -4.421811,-1.25932 -10.348809,-1.39065 -14.746527,-0.1391 -1.251001,0.35604 -1.60816,0.88634 -2.6164,2.57669 -1.819905,3.05111 -2.234872,4.6486 -2.341914,9.0156 -0.05135,2.09493 -0.159891,3.87549 -0.241202,3.9568 -0.08131,0.0813 -0.530247,-0.006 -0.997636,-0.19375 -2.54931,-1.0247 -3.915327,-1.41054 -6.228198,-1.75918 -3.365127,-0.50726 -6.212297,-0.50066 -7.303003,0.0169 -1.578961,0.74926 -1.770292,1.59172 -2.041013,8.98692 -0.234996,6.41928 -0.265352,6.67473 -1.0280919,8.65172 -1.061964,2.75255 -1.034571,3.9456 0.132706,5.77978 1.0253579,1.61117 1.3096849,2.20068 2.3697749,4.91341 0.404588,1.03533 1.000028,2.21402 1.323198,2.61931 l 0.587581,0.7369 0.591622,-0.83086 c 1.068922,-1.50116 1.029372,-2.44562 -0.178136,-4.25388 -0.58638,-0.87811 -1.149856,-2.09202 -1.252165,-2.69758 -0.171841,-1.01713 -0.123301,-1.15009 0.637146,-1.74522 0.956694,-0.74873 1.01319,-1.16154 0.314018,-2.29443 -1.130633,-1.83201 -1.273543,-11.48907 -0.200721,-13.56368 0.766019,-1.48131 2.480281,-1.3389 4.433271,0.3683 2.59021,2.26423 6.408994,4.03603 8.69887,4.03603 1.154112,0 1.652439,0.46376 2.132287,1.98437 1.061355,3.36338 4.326518,8.80688 5.251118,8.81543 0.238921,0.002 1.151922,-0.37032 1.874898,-1.02034 1.143757,-1.02833 2.819548,-2.92839 2.886953,-5.20595 0.290184,-0.62394 0.427695,-0.27642 0.518992,0.51645 -0.134543,1.71289 -1.395867,3.73557 -2.739927,4.91683 -0.609168,0.53538 -2.046594,1.49623 -3.194277,2.13522 -5.629171,3.13413 -8.770818,5.64658 -9.795938,7.83403 -0.803804,1.7152 -0.793274,3.26296 0.03839,5.64338 0.870032,2.49022 1.259139,6.26515 0.920832,8.93346 -0.252116,1.98848 -0.238459,2.08255 0.467026,3.21659 1.715212,2.75716 2.044579,3.45571 2.457093,5.21117 l 0.435443,1.85305 1.510128,0.79437 c 1.281861,0.6743 1.54749,0.73529 1.757318,0.40347 0.519498,-0.82153 0.269091,-2.01888 -0.66879,-3.19794 -1.412915,-1.77624 -1.628243,-2.67453 -0.916977,-3.82538 0.792871,-1.28289 0.587449,-2.27056 -0.961155,-4.62119 l -1.255186,-1.90525 -0.122272,-3.38618 c -0.14479,-4.00974 -0.02843,-4.61656 0.985785,-5.14103 0.421955,-0.2182 1.396058,-1.00927 2.164675,-1.75792 1.395809,-1.35956 1.402744,-1.36257 5.78359,-2.50581 4.298574,-1.12177 10.66592,-3.14969 12.918723,-4.11444 0.625149,-0.26772 1.545693,-0.79876 2.045647,-1.18009 1.058129,-0.80708 1.532985,-0.8543 3.734268,-0.37132 1.427906,0.3133 1.907013,0.30108 3.95211,-0.10075 2.383324,-0.46828 16.370508,-5.00768 16.974406,-5.50887 0.514636,-0.42711 0.671335,-0.83255 -0.471297,-1.62439 -1.092282,-0.75695 -1.578455,-1.01423 -0.808343,-1.01423 0.693544,0 3.064567,1.75398 4.505575,3.48553 1.811792,2.17709 3.16059,4.85405 4.299917,7.82855 1.423366,3.71606 1.517952,3.55869 3.966157,4.7671 3.72467,1.83846 5.74813,4.05674 6.70598,7.35163 0.45521,1.56586 0.43575,3.03637 -0.0756,5.71545 -0.295,1.54548 -0.57093,2.04164 -2.72208,4.89479 -1.7508,2.32216 -1.80587,2.44362 -2.21912,4.89479 -0.23306,1.38245 -0.55565,2.92033 -0.71686,3.4175 -0.25224,0.77792 -0.22583,0.95315 0.1894,1.25677 0.54197,0.3963 2.17542,0.46528 2.72804,0.1152 z M 33.100769,202.35473 c 3.570904,-0.83657 8.908785,-0.83122 12.435416,0.0125 2.875568,0.68793 4.268866,0.79496 4.424378,0.33988 0.139626,-0.40859 -1.400299,-1.18749 -3.898413,-1.97185 -1.764046,-0.55387 -2.474121,-0.62066 -6.47909,-0.60944 -3.966374,0.0111 -4.810588,0.094 -7.143749,0.70142 -1.455209,0.37884 -3.003021,0.8289 -3.439584,1.00013 l -0.793749,0.31133 0.649843,0.52903 c 0.370699,0.30179 0.882136,0.47466 1.190625,0.40247 0.297428,-0.0696 1.671875,-0.39156 3.054323,-0.71543 z m 17.026362,-2.17541 c 0.923383,-1.2232 2.64318,-4.42959 2.469198,-4.60357 -0.08042,-0.0804 -0.540997,0.1494 -1.023496,0.51072 -1.325425,0.99254 -2.514491,1.52824 -2.98845,1.34637 -0.613175,-0.2353 -1.367975,-1.85795 -1.700175,-3.65499 -0.158208,-0.85582 -0.360657,-1.62595 -0.449885,-1.7114 -0.08923,-0.0855 -0.357576,0.1423 -0.596331,0.5061 -0.837633,1.27634 -2.500085,2.92082 -3.10665,3.07306 -0.935701,0.23484 -2.061408,-0.73624 -2.781472,-2.39941 -0.347265,-0.8021 -0.717631,-1.4604 -0.823036,-1.46288 -0.105405,-0.002 -0.387938,0.38243 -0.627854,0.85538 -0.728673,1.43642 -2.306436,3.37343 -2.74778,3.37343 -0.483925,0 -1.688769,-1.0689 -2.689092,-2.38568 l -0.700122,-0.92161 -0.195384,1.05833 c -0.255016,1.38135 -0.898009,3.056 -1.396841,3.63803 -0.588301,0.68641 -1.360025,0.56933 -3.081941,-0.46755 -0.849947,-0.51181 -1.591543,-0.88439 -1.647986,-0.82794 -0.144883,0.14488 0.417774,1.36709 1.461608,3.1749 0.805411,1.39489 0.963626,1.53355 1.593125,1.39621 4.719333,-1.02962 6.235311,-1.2576 9.300847,-1.39868 3.823454,-0.17597 6.632136,0.1951 9.211323,1.21696 1.695196,0.67162 1.783352,0.66058 2.520394,-0.31578 z m 0.144807,-6.41021 c 2.011809,-5.20845 2.801088,-9.63214 2.147826,-12.03801 -0.197845,-0.72864 -0.674118,-1.51669 -1.238107,-2.0486 -0.504118,-0.47544 -0.852157,-0.96867 -0.773422,-1.09607 0.07873,-0.1274 0.711375,-0.30892 1.405866,-0.40339 2.180236,-0.29655 4.454501,-1.94626 3.511666,-2.5473 -0.617926,-0.39392 -0.844243,-0.30785 -0.66613,0.25334 0.27646,0.87105 -0.942391,1.43651 -3.135101,1.45447 -1.871853,0.0153 -1.888003,0.009 -1.971855,-0.72068 -0.07766,-0.67618 -0.154472,-0.72303 -0.943009,-0.5751 -1.042839,0.19564 -1.562799,-0.30473 -1.43896,-1.38474 0.07636,-0.66591 0.209663,-0.75896 1.275889,-0.89055 1.317866,-0.16265 1.39115,-0.11981 -1.400823,-0.819 -0.660463,-0.16539 -1.104294,-0.47164 -1.297239,-0.89511 -0.364392,-0.79975 -1.445069,-1.03249 -3.959026,-0.85262 -2.053616,0.14694 -2.72556,0.50366 -1.840722,0.97721 0.738418,0.39519 1.405586,1.73278 1.303795,2.61393 -0.068,0.5886 -0.195157,0.69472 -0.743484,0.62046 -0.847601,-0.11478 -2.334935,-0.11478 -3.148222,0 -1.106217,0.15612 -0.978341,-0.33813 0.694719,-2.68521 l 0.469128,-0.65812 -0.926042,0.60252 c -2.831258,1.84214 -5.410313,2.76205 -8.731249,3.1143 -0.945886,0.10032 -1.812163,0.23524 -1.925058,0.29981 -0.112898,0.0646 0.09546,0.4748 0.463021,0.91162 0.78255,0.93001 0.852056,1.50764 0.205266,1.70589 -0.254661,0.0781 -0.972222,0.37198 -1.594577,0.65316 -0.622356,0.28117 -1.247434,0.51123 -1.389063,0.51123 -0.392919,0 -0.306879,-1.25372 0.146164,-2.12981 0.479126,-0.92652 0.176683,-1.01923 -0.604507,-0.18529 -0.653237,0.69734 -1.122079,1.8288 -1.122079,2.70793 0,0.50968 0.228552,0.69699 1.256771,1.02999 0.691224,0.22386 2.010492,0.48802 2.931707,0.58702 1.44817,0.15563 1.657824,0.24544 1.548532,0.66337 -0.07812,0.29873 0.04009,0.53165 0.309438,0.60974 0.239713,0.0695 3.17428,0.16294 6.521259,0.20764 l 6.085417,0.0813 1.521907,-0.77114 c 1.542872,-0.78178 2.119778,-0.76186 1.62856,0.0562 -0.456364,0.76004 -2.694373,1.70316 -4.480213,1.888 -0.931926,0.0965 -1.73714,0.22916 -1.789369,0.29489 -0.910693,1.14625 -1.337217,2.21039 -1.80472,4.50261 -0.30339,1.48755 -0.778534,3.23401 -1.055878,3.88103 -0.484137,1.12944 -0.474736,1.65776 0.02949,1.65776 0.492922,0 1.578926,-0.99151 2.481129,-3.01834 0.902203,-2.02683 1.150511,-1.2883 2.197535,0.70919 1.047024,1.99748 0.915958,2.34525 2.011208,2.34525 0.673098,0 1.034592,-0.38366 2.157968,-1.72393 1.123376,-1.34028 1.726132,-2.07549 1.937995,-2.07549 0.211862,0 0.575223,1.07294 0.993731,2.79318 0.418507,1.72024 0.814523,2.55764 1.457246,2.55764 0.118161,0 0.696691,-1.24748 1.285619,-2.77219 z m 65.378822,-2.82027 c 0,-0.17395 -0.23833,-0.2232 -0.59531,-0.12301 -4.47046,1.25472 -4.93691,1.33548 -7.73906,1.34002 -2.32981,0.004 -3.31788,-0.36037 -4.05918,-0.75264 -1.25168,-0.66242 -2.42311,-1.75246 -2.42311,-2.30863 0,-0.60777 1.18493,-1.569 3.42691,-2.77994 1.01734,-0.54949 1.79622,-1.05257 1.73084,-1.11795 -0.17863,-0.17863 -2.21685,0.6157 -5.76859,2.09228 -3.135328,1.30347 -3.150518,1.20754 -5.556248,1.52525 -1.80026,-0.0122 -3.05034,-0.10705 -4.81312,-0.61892 -3.61776,-1.05051 -4.40814,-1.8013 -2.7817,-2.64236 1.71182,-0.88522 3.83122,-3.30266 3.22433,-3.67774 -0.11929,-0.0737 -0.81417,0.74922 -1.96766,1.1358 -1.8329,0.6143 -2.53077,0.6725 -5.536827,0.68015 -3.190536,0.008 -4.835237,-0.49188 -6.977629,-1.25601 -2.629392,-0.93784 -5.220803,-2.99034 -5.076295,-3.45328 0.05321,-0.17047 1.677709,-0.82544 3.609996,-1.45551 1.932286,-0.63006 3.459183,-1.19964 3.393101,-1.26572 -0.06608,-0.0661 -2.01304,0.0184 -4.326578,0.18768 -4.635166,0.33919 -7.114468,0.14469 -10.151363,-0.79636 -1.99004,-0.61666 -4.233333,-1.95101 -4.233333,-2.51807 0,-0.21467 0.51893,-0.61987 1.153178,-0.90042 0.634246,-0.28056 1.456222,-0.91121 1.826609,-1.40145 0.648065,-0.85776 1.64488,-3.6309 1.394974,-3.88081 -0.06675,-0.0668 -0.969992,0.66434 -2.007209,1.62465 -1.037214,0.9603 -2.520614,2.05656 -3.296438,2.43614 -1.261486,0.61719 -1.615562,0.67353 -3.349707,0.53299 -3.708643,-0.30055 -5.592439,-1.82843 -6.481852,-5.25721 -0.188404,-0.72632 -0.389924,-1.36795 -0.44782,-1.42585 -0.255149,-0.25515 -1.347655,6.36747 -1.13978,6.90918 0.09809,0.25563 0.476104,0.41853 0.971155,0.41853 0.445805,0 1.193681,0.15982 1.661951,0.35515 0.468268,0.19533 1.506241,0.506 2.306606,0.69036 0.800365,0.18437 2.288646,0.72822 3.307291,1.20856 1.083255,0.51081 2.895494,1.06433 4.365625,1.33341 1.382448,0.25304 3.518141,0.79953 4.745987,1.21442 1.227844,0.4149 2.671781,0.75435 3.208748,0.75435 1.094128,0 1.366623,0.24286 1.806482,1.61001 0.750758,2.33346 3.738472,3.83804 10.986901,5.53288 l 3.682497,0.86105 1.395437,1.40663 c 2.015913,2.03209 4.737733,2.90166 9.910903,2.90166 2.14929,0 3.7985,-0.0868 4.26372,0.006 0.46521,0.0931 1.204648,0.86046 1.958168,1.53971 3.70885,3.34328 7.97183,2.10909 10.83895,1.14826 2.86712,-0.96083 3.13541,-1.2043 3.55845,-1.81324 z M 64.307712,171.01391 c 0.611037,-0.21559 2.105306,-0.5783 3.320598,-0.80602 2.000464,-0.37486 2.841309,-0.15244 4.835569,-0.0698 1.461,0.27248 4.140616,0.39859 7.562599,0.10654 2.837656,0.0164 5.726374,0.437 7.181574,0.4448 3.09147,0.0165 4.84863,-0.32006 7.46024,-1.54157 1.76898,-0.8274 2.34466,-0.63157 3.753,-0.75871 3.721458,0.33745 7.806918,-1.24865 10.948138,-4.12701 0.98088,-0.8988 1.78342,-1.74244 1.78342,-1.87477 0,-0.13233 -0.74415,0.30796 -1.65365,0.97843 -2.12096,1.56351 -5.29547,2.9075 -7.33539,3.4361 -1.74727,0.45276 -4.649798,0.77826 -4.886208,0.39574 -0.0815,-0.13184 0.16228,-0.83804 0.5417,-1.56935 0.54922,-1.0586 0.71201,-1.80526 0.79859,-3.6629 0.11383,-2.44234 0.0355,-2.43797 -0.84739,0.0472 -0.60168,1.69371 -2.3098,4.68401 -4.283,5.72681 -2.15259,1.13763 -5.9674,1.30201 -8.131528,1.44848 -1.824606,0.12349 -1.84227,0.11849 -1.190625,-0.33739 2.420573,-1.69337 3.508523,-3.63361 3.856643,-6.87789 0.26204,-2.44205 -0.15743,-2.63666 -1.10403,-0.42157 -1.93989,4.53945 -4.592674,6.35379 -8.769828,6.55311 -2.362403,0.46542 -5.558977,0.34083 -5.790236,-0.26182 -0.07239,-0.18864 0.230748,-0.86295 0.673637,-1.49847 0.832056,-1.19396 1.706708,-4.03436 1.56002,-5.06611 -0.06835,-0.48073 -0.260588,-0.29924 -1.05945,1.0002 -1.909558,3.10613 -5.443542,5.86965 -8.33299,6.51628 -1.272265,0.28472 -1.503508,0.44147 -1.954025,1.32456 -0.76263,1.49488 -0.725469,1.52619 1.062622,0.89531 z m -6.339249,-0.73251 c 1.433443,-0.73103 1.596744,-1.13648 0.542639,-1.3473 -0.9827,-0.19655 -0.997691,-0.46205 -0.174178,-3.08447 1.207492,-3.84516 1.144209,-4.41293 -0.233032,-2.0907 -0.982286,1.65627 -3.531317,4.12937 -5.291666,5.13403 -1.622518,0.926 -1.577755,0.89107 -1.386702,1.08213 0.425786,0.42578 2.352418,0.87965 3.778035,0.89001 1.151877,0.008 1.923254,-0.15447 2.764904,-0.5837 z m -12.28468,-0.17367 c -0.08152,-0.1319 -0.671923,-0.41826 -1.312008,-0.63636 -0.640086,-0.2181 -1.843577,-0.8314 -2.674422,-1.36288 -0.830847,-0.53149 -1.579186,-0.89778 -1.662977,-0.81399 -0.238125,0.23812 1.839542,2.27961 2.723684,2.67625 0.893186,0.40069 3.154132,0.50655 2.925723,0.13698 z"
         id="path834-6"
         inkscape:connector-curvature="0"
         sodipodi:nodetypes="ssssccccscsscccscccccscccccscsssscssccccccscccsccccccccscccssccccsccccsccccccccccccsscccccscccccccscsscsccsccccscsssscccccccccccccccccccccccccccccccsscccscccccccccccccccccccccccccccccccccsccsssscccccccscszzszszsccccccscsscscccccccccssccccccsccscccccscsccscczcccccscssccccsccscsscccccscccccccccccccccccc" />
      <path
         style="fill:#0e65dc;fill-opacity:1;stroke-width:0.26458332"
         d="m 57.574726,296.26361 c -22.133128,-1.49265 -41.90451,-14.47396 -51.3406569,-33.70877 -2.795456,-5.69831 -4.703576,-12.14822 -5.40086496,-18.25625 -0.427968,-3.74887 -0.375747,-94.22829 0.05455,-94.50678 0.50314296,-0.32564 121.17307586,-0.084 121.57602586,0.24343 0.43592,0.35426 0.48583,89.54548 0.0523,93.54617 -1.1749,10.84339 -5.58216,21.40941 -12.53703,30.05648 -2.50634,3.11616 -7.27004,7.7188 -10.491658,10.13692 -12.02265,9.02413 -27.020649,13.49311 -41.912702,12.4888 z m 12.170832,-13.77454 c 0,-1.2412 0.137875,-1.69333 0.806826,-2.64583 0.708183,-1.00836 0.928364,-1.14882 1.800921,-1.14882 1.219168,0 1.876356,-0.74758 2.275437,-2.58842 0.454668,-2.09725 1.137309,-3.09569 4.843976,-7.08491 1.952397,-2.10123 3.687886,-4.08048 3.85664,-4.39833 0.46246,-0.87107 0.369713,-2.16829 -0.223668,-3.1284 -0.609095,-0.98553 -1.211889,-5.86911 -0.955648,-7.74222 0.085,-0.62139 0.573225,-1.93881 1.084931,-2.92762 0.511707,-0.9888 0.930376,-2.00655 0.930376,-2.26166 0,-0.43474 0.04566,-0.43284 0.727604,0.0302 0.400182,0.27175 1.644609,0.93837 2.765399,1.48139 4.62912,2.24279 7.02986,6.70441 6.04748,11.23886 -0.17946,0.82834 -0.375,1.76325 -0.43454,2.07758 -0.0595,0.31433 -1.04764,1.83899 -2.19579,3.38814 -2.02385,2.73071 -2.09768,2.88278 -2.41994,4.98475 -0.18282,1.19246 -0.49271,2.70389 -0.68865,3.35873 -0.49267,1.64655 -0.46697,1.7842 0.41863,2.24216 0.93048,0.48117 2.11675,0.51883 3.0434,0.0966 0.78568,-0.35798 0.82738,-0.7286 0.25158,-2.23631 -0.38928,-1.01932 -0.38781,-1.17858 0.0187,-2.03532 0.24258,-0.5112 0.67214,-1.13858 0.95457,-1.39417 0.4914,-0.44472 0.57108,-0.43776 1.85086,0.16166 1.66967,0.78204 1.90769,0.53427 1.67764,-1.74641 -0.13764,-1.36457 -0.037,-1.97779 0.67334,-4.10104 0.93891,-2.80665 2.70244,-6.66056 4.102358,-8.96508 1.20205,-1.9788 1.22355,-2.77163 0.0859,-3.16822 -0.46669,-0.16269 -1.123818,-0.55443 -1.460298,-0.87054 -2.56053,-2.40549 -2.09304,-12.75182 0.839638,-18.58288 0.98178,-1.95207 1.20467,-2.65745 1.20463,-3.81228 -5e-5,-1.50876 -0.60084,-4.18925 -1.19762,-5.34331 -0.34478,-0.66672 -0.30675,-0.75118 0.83918,-1.86381 1.58193,-1.53598 2.73401,-3.54865 2.73716,-4.78183 0.006,-2.28163 -0.85381,-2.41662 -2.36475,-0.37134 -2.024088,2.73991 -3.095228,2.92323 -6.234808,1.06706 -1.11715,-0.66048 -2.94269,-1.51756 -4.05676,-1.90462 -2.02291,-0.70283 -2.03683,-0.7038 -10.624526,-0.73528 -9.318003,-0.0342 -12.342783,-0.34081 -18.364141,-1.86176 -7.8042,-1.97128 -13.400885,-5.81364 -13.660791,-9.37872 -0.113972,-1.56331 -0.0069,-1.80535 0.936392,-2.11666 1.003483,-0.33118 1.202142,-0.9304 0.48283,-1.45638 -0.402587,-0.29437 -0.345426,-0.47893 0.623623,-2.01354 1.579581,-2.50145 2.50702,-4.44167 2.414812,-5.05182 -0.07385,-0.48865 -0.208131,-0.43579 -1.399749,0.55103 -1.128495,0.93455 -1.989224,1.36177 -1.989224,0.98735 0,-0.0573 0.465476,-1.27847 1.034394,-2.71369 2.523545,-6.36625 2.991654,-11.67679 1.232564,-13.98308 l -0.647081,-0.84837 1.57285,-0.43729 c 1.143791,-0.318 1.861132,-0.72557 2.629643,-1.49408 0.804317,-0.80432 1.262234,-1.05543 1.916692,-1.05107 1.157102,0.008 5.080589,0.89108 6.51937,1.46785 0.638857,0.2561 1.873448,0.59486 2.743533,0.7528 1.551905,0.2817 1.59027,0.30965 2.018204,1.47029 0.87154,2.36375 3.903427,3.89973 11.211771,5.67999 3.401886,0.82867 3.843951,1.00349 4.560766,1.80358 2.125558,2.37251 4.630658,3.30122 10.851928,3.26368 l 3.99798,-0.0241 1.703168,1.52499 c 2.99843,2.68473 5.96195,2.59378 9.22327,1.72827 3.38754,-0.89901 6.10594,-2.10101 6.10594,-3.03299 0,-0.47647 -0.0141,-0.47439 -3.83646,0.56612 -5.01381,1.36484 -8.90928,0.96591 -10.72139,-1.09797 l -0.82419,-0.93869 0.59513,-0.63348 c 0.32731,-0.34841 1.86499,-1.28303 3.41706,-2.07694 1.55207,-0.7939 2.98906,-1.64519 3.1933,-1.89174 0.34138,-0.41211 0.28991,-0.43303 -0.638,-0.25928 -1.44905,0.27134 -5.17829,1.83831 -7.873238,2.93083 -1.98645,0.8053 -2.5033,1.122 -4.34658,1.22271 -1.54648,0.0845 -2.7225,0.14858 -4.36563,-0.24549 -2.54821,-0.61107 -4.23333,-1.25738 -4.23333,-1.62364 0,-0.13658 0.54255,-0.6216 1.20567,-1.07784 2.04047,-1.40388 3.52749,-3.96174 2.30006,-3.95638 -0.25466,0.001 -1.47514,0.92612 -2.40418,1.20863 -4.488071,1.36474 -8.296132,0.84072 -12.283622,-0.71356 -2.129266,-0.82996 -4.16376,-2.45708 -4.16376,-2.85689 0,-0.13318 1.637109,-0.78972 3.63802,-1.45896 2.000912,-0.66925 3.813167,-1.32749 4.027234,-1.46276 0.827277,-0.52278 -0.120137,-0.63118 -2.856847,-0.32687 -4.387582,0.48787 -9.329263,0.40477 -11.641536,-0.19577 -2.25797,-0.58643 -4.69234,-1.71349 -4.906502,-2.27159 -0.15476,-0.40329 1.528567,-1.44925 2.332384,-1.44925 0.22188,0 1.447014,-0.30852 2.72252,-0.68559 2.680666,-0.79247 5.198483,-0.9213 9.198268,-0.47064 1.543958,0.17396 3.611838,0.21908 4.965411,0.10834 1.275768,-0.10438 4.286277,-0.0302 4.97504,0.0832 2.06387,0.33981 5.28146,0.18798 7.2343,-0.22573 1.0059,-0.2131 2.59685,-0.74681 3.53543,-1.18603 1.50956,-0.70641 1.98678,-0.79858 4.13477,-0.79858 4.296928,0 7.711928,-1.37033 10.998808,-4.41348 1.79467,-1.66159 3.12558,-3.40432 2.8275,-3.70241 -0.0828,-0.0828 -1.13818,0.64253 -2.34528,1.61185 -2.64657,2.12524 -6.19613,3.74338 -8.71483,4.26892 -3.467108,0.72345 -4.182668,0.76143 -3.371888,-0.87731 0.99773,-2.01657 1.27231,-7.23612 0.38047,-7.23218 -0.13811,5.3e-4 -0.44391,0.81035 -0.67956,1.79943 -0.23564,0.98907 -0.61672,2.1555 -0.84683,2.59206 -0.71619,1.35878 -2.3299,3.79436 -4.2607,4.74274 -1.84005,0.90381 -5.76319,1.21038 -6.9912,1.21038 -0.615898,0 -0.598237,-0.0493 0.44055,-1.2294 1.36873,-1.55497 2.13937,-3.91609 2.13375,-6.53753 -0.004,-1.92761 -0.25192,-2.75189 -0.7371,-2.45203 -0.14913,0.0922 -0.35023,0.63572 -0.4469,1.20789 -0.24383,1.44321 -1.757495,4.4842 -3.202671,5.78807 -1.368369,1.23458 -2.865989,1.7524 -4.585532,2.14883 -1.508934,0.34787 -6.290511,0.35783 -6.502988,0.014 -0.09055,-0.14651 0.08352,-0.6149 0.386829,-1.04085 1.016159,-1.42706 2.0809,-5.52767 1.725798,-6.64651 -0.234855,-0.73995 -0.553395,-0.4371 -1.488377,1.41509 -0.994566,1.97023 -3.550822,4.69742 -5.371179,5.73034 -1.146055,0.65031 -3.769309,1.60207 -4.415636,1.60207 -0.112252,0 -0.133588,-0.59531 -0.04741,-1.32292 0.206467,-1.74331 -0.108543,-1.71016 -1.885892,0.19844 l -1.416727,1.52135 -1.151477,-0.40272 c -1.3135,-0.4594 -1.300673,-0.33461 -0.352923,-3.43373 0.378267,-1.23693 0.747247,-2.84427 0.819955,-3.57188 0.124907,-1.24996 0.108693,-1.29373 -0.294029,-0.79375 -0.234424,0.29104 -0.866455,1.26195 -1.404517,2.15757 -1.640771,2.73111 -3.822245,4.78944 -6.320596,5.96381 -0.95154,0.44727 -1.214906,0.4802 -1.558708,0.19487 -0.63836,-0.52979 -1.351135,-2.10509 -1.548112,-3.42146 -0.38472,-2.57102 -0.441224,-2.7336 -0.814795,-2.34435 -0.190015,0.19799 -0.573309,1.66967 -0.851762,3.27039 -0.450141,2.5877 -0.562816,2.90118 -1.016135,2.82711 -0.911151,-0.14887 -3.850446,-1.61586 -5.152181,-2.57142 -2.224021,-1.63258 -1.991418,-0.23252 0.364128,2.19171 0.906502,0.93293 1.20491,1.38906 0.908748,1.38906 -1.257956,0 -3.271694,0.67929 -4.482186,1.51196 -2.868351,1.97308 -5.244031,2.75345 -10.304102,3.38474 -1.742774,0.21742 -3.581149,1.46 -4.210161,2.84568 -0.872265,1.92157 -0.731174,2.42538 0.987022,3.5245 2.504398,1.60204 3.147619,1.74197 8.855541,1.92642 2.862058,0.0925 5.279839,0.24438 5.372845,0.33753 0.09301,0.0932 -0.191989,0.68847 -0.633322,1.32292 -0.605676,0.87071 -0.9618,1.91463 -1.452428,4.25756 -0.591743,2.82582 -1.30081,4.70119 -1.777489,4.70119 -0.251687,0 -1.553974,-1.56912 -1.553974,-1.87238 0,-0.58679 -0.798259,-0.17456 -0.93593,0.48332 -0.399266,1.90795 -0.74714,2.99371 -1.195265,3.7306 -0.430501,0.7079 -0.579168,0.77802 -1.244825,0.58711 -1.127342,-0.32332 -2.250906,-0.95292 -2.817175,-1.57864 -0.601599,-0.66476 -1.215138,-0.72585 -1.215138,-0.121 0,0.74723 1.815041,4.2495 2.61888,5.05333 0.683458,0.68346 0.719143,0.79697 0.330433,1.05109 -0.557996,0.36479 -0.164153,1.11516 0.845404,1.6107 0.855583,0.41996 0.856311,0.45072 0.04194,1.7715 -1.955128,3.17088 -2.515309,5.15192 -2.742944,9.70018 l -0.167669,3.35018 -1.559205,-0.63532 c -2.393733,-0.97535 -5.242179,-1.45894 -8.926993,-1.51556 -3.01937,-0.0464 -3.429466,0.003 -4.089607,0.4926 -1.544688,1.14563 -1.689619,1.82042 -1.9799699,9.21868 -0.25916,6.60349 -0.287426,6.83892 -1.049549,8.74223 -0.430769,1.0758 -0.783216,2.44692 -0.783216,3.04694 0,1.09366 0.721084,2.85734 1.573249,3.84798 0.250358,0.29105 0.6662349,1.12448 0.9241689,1.85209 0.823339,2.32254 2.280798,5.14917 2.797627,5.42576 0.603469,0.32297 1.428274,-0.41949 2.033521,-1.83051 0.505283,-1.17797 0.270486,-2.35646 -0.717079,-3.59915 -0.698952,-0.87952 -1.314265,-2.37623 -1.318344,-3.20682 -7.94e-4,-0.16516 0.29429,-0.49409 0.65578,-0.73095 0.928425,-0.60833 1.072052,-1.48999 0.443449,-2.72215 -0.779941,-1.52881 -1.144986,-4.75414 -0.952695,-8.41743 0.340058,-6.47839 0.97791,-6.89114 5.398833,-3.49361 2.236544,1.71881 4.577847,2.80533 6.881526,3.19349 1.013706,0.1708 1.951919,0.42726 2.084919,0.56992 0.132998,0.14265 0.66143,1.29989 1.174293,2.57166 1.176856,2.91828 2.637038,5.53879 3.809306,6.83635 l 0.910318,1.00761 -1.009333,0.63742 c -0.555133,0.35059 -1.902301,1.18283 -2.993707,1.84943 -6.387957,3.90161 -8.121155,7.03508 -6.492052,11.73706 0.993799,2.86835 1.384221,6.40074 0.988663,8.94506 -0.349295,2.24675 -0.302141,2.46087 0.912982,4.14594 1.030507,1.42906 1.929863,3.31489 1.940237,4.06842 0.004,0.29104 0.133908,0.98516 0.288668,1.54249 0.222618,0.8017 0.483841,1.09791 1.250852,1.41839 0.53321,0.22279 1.267262,0.63931 1.631225,0.92561 l 0.661755,0.52054 0.599461,-0.69692 c 0.97591,-1.13457 0.675884,-2.97289 -0.686411,-4.20575 -0.300461,-0.27192 -0.67432,-0.88231 -0.830794,-1.35644 -0.240758,-0.7295 -0.197202,-1.01001 0.283271,-1.82435 0.766487,-1.2991 0.533439,-2.45189 -0.951458,-4.70643 -1.033401,-1.56903 -1.19766,-2.03112 -1.457788,-4.10104 -0.393242,-3.12916 -0.151569,-5.0226 0.733637,-5.74781 0.371721,-0.30454 1.343078,-1.16733 2.158574,-1.91731 1.468048,-1.3501 1.524605,-1.37417 5.716052,-2.43251 7.118646,-1.79747 13.039926,-3.91629 15.627384,-5.59199 0.668424,-0.43289 0.96997,-0.47937 1.718045,-0.26482 2.487684,0.71345 6.566844,0.14299 11.353461,-1.58777 1.232307,-0.44558 2.377283,-0.75768 2.544392,-0.69355 0.16711,0.0641 0.512479,0.88738 0.767487,1.82946 0.465942,1.72133 0.465145,1.99523 -0.02072,7.12274 -0.265126,2.79797 -0.05305,3.38573 2.033704,5.63629 5.971407,6.44017 6.424413,11.42153 1.473417,16.20193 -1.351278,1.30472 -1.975903,2.2004 -3.038912,4.35763 -0.735914,1.49345 -2.000003,3.58641 -2.809083,4.65103 -0.80908,1.06463 -1.471055,2.08307 -1.471055,2.2632 0,0.44359 1.563079,1.92604 2.38125,2.25843 0.363802,0.1478 1.137709,0.24365 1.719792,0.213 l 1.058333,-0.0557 z M 24.898686,178.7793 c 0,-0.38429 1.045191,-2.08304 1.27835,-2.0777 0.252709,0.006 0.651306,0.32291 1.056378,0.84046 0.309153,0.39499 0.224827,0.51167 -0.717063,0.99218 -1.208098,0.61633 -1.617665,0.67837 -1.617665,0.24506 z m 25.278711,-1.86681 c -0.06454,-0.19097 -0.153009,-0.64489 -0.196596,-1.00869 -0.05915,-0.49372 -0.213408,-0.64032 -0.608285,-0.5781 -1.407099,0.22172 -1.587984,0.17692 -1.671921,-0.41409 -0.10373,-0.73037 0.361977,-0.76113 3.226271,-0.2131 2.27475,0.43523 3.075985,0.78778 3.075985,1.35344 0,0.72262 -3.598497,1.53211 -3.825454,0.86054 z m -10.432695,-2.08888 c -0.34766,-0.1391 -1.032269,-0.17783 -1.521354,-0.0861 -0.489085,0.0918 -0.889246,0.0616 -0.889246,-0.0669 0,-0.41266 1.613283,-2.20639 1.984433,-2.20639 0.523507,0 1.45515,1.29331 1.45515,2.02005 0,0.68438 -0.0913,0.71449 -1.028983,0.33934 z"
         id="path832-2"
         inkscape:connector-curvature="0"
         sodipodi:nodetypes="csscccsccccssscccccscccccsccccccccccsccccccccccsccccccscscccccccccsccsssccccccsccsccccscccccsssccscsscsccccccscccccccccscscscccccsccssscscsccccccccssscssscccccccccscscccsccccsscccccccssccccccscccsscccccccssccccsccccscccscccssscccsssc" />
      <path
         style="fill:#0b0d15;stroke-width:0.26458332"
         d="M 53.166206,296.55492 C 40.396672,295.38495 27.576421,288.70758 17.381689,278.57231 9.6768891,270.91244 3.7029841,259.88069 1.4996691,249.63915 0.15005714,243.36582 0.02248214,243.87862 0.02248214,195.47136 c 0,-34.74546 -0.10514,-46.02343 0.13932,-46.26789 0.401743,-0.40174 122.42646786,-0.34842 123.06125786,0.0529 0.34964,0.22099 0.0724,6.52558 0.14308,45.05201 0.0835,45.49781 0.0241,48.71857 -1.02653,54.20189 -4.73259,24.6994 -23.579428,37.42402 -34.163198,42.84942 -10.583776,5.4254 -22.240672,6.3652 -35.010206,5.19523 z m 12.213727,-2.12702 c 16.003341,-1.12036 29.876249,-7.58345 40.405117,-18.82386 7.68224,-8.20142 12.24534,-17.25363 14.4469,-28.65962 0.55725,-2.88701 0.56242,-3.28036 0.64329,-48.92751 0.0548,-30.94353 -0.007,-46.10524 -0.18753,-46.28616 -0.30718,-0.30718 -115.0481599,-0.62063 -117.0543959,-0.31978 l -1.201021,0.18011 -0.07774,35.50584 c -0.09946,45.42814 0.04559,56.40714 0.797724,60.37667 2.144088,11.31588 6.734024,20.06284 15.2910629,29.1399 3.746775,3.97448 9.953725,8.4696 15.58347,11.28568 8.712372,4.35805 16.002386,6.19381 26.855207,6.76264 0.363802,0.0191 2.387864,-0.0862 4.497916,-0.23391 z m -2.84427,-7.12443 c -0.445302,-0.1927 -0.594522,-0.47645 -0.592172,-1.12604 0.0052,-1.44979 0.730573,-3.70677 1.409406,-4.38561 l 0.640765,-0.64076 1.111258,1.20557 c 1.291749,1.40138 2.512206,1.88969 4.158906,1.66398 l 1.171932,-0.16063 -0.08052,1.25368 -0.08052,1.25368 -1.455208,0.47367 c -1.711595,0.55712 -5.432351,0.83096 -6.283854,0.46246 z m 23.491079,-4.75519 c -0.52039,-0.97235 -0.32357,-3.37654 0.39202,-4.78869 0.60475,-1.19342 1.18617,-1.7112 1.18617,-1.05633 0,0.4153 1.48669,1.06521 2.43426,1.06413 0.48016,-5.3e-4 1.2584,-0.23595 1.7294,-0.52313 l 0.85637,-0.52214 0.15971,0.63633 c 0.0878,0.34998 0.0831,0.8777 -0.0105,1.17271 -0.36983,1.16524 -4.83129,4.5199 -6.01979,4.52641 -0.24954,10e-4 -0.57697,-0.22782 -0.72761,-0.50929 z m -53.341581,-5.11063 c -2.448446,-2.56959 -2.372881,-2.39632 -1.448334,-3.32087 0.922038,-0.92204 1.049221,-1.989 0.389223,-3.26529 -0.22901,-0.44286 -0.342958,-0.87862 -0.253219,-0.96837 0.08974,-0.0897 0.783129,-0.16797 1.540864,-0.17384 l 1.377699,-0.0107 0.45144,1.32292 c 0.451924,1.32434 0.670173,6.45852 0.314002,7.38669 -0.286697,0.74713 -1.021511,0.44642 -2.371675,-0.97055 z m -17.883199,-26.59889 -1.364808,-1.30194 0.961834,-1.25968 c 1.185331,-1.55238 1.42095,-2.63471 0.863828,-3.96809 -0.230063,-0.55062 -0.418296,-1.02221 -0.418296,-1.04797 0,-0.0705 1.902259,0.12017 2.559129,0.25652 0.865185,0.17958 1.239454,1.65381 1.077778,4.2453 -0.159033,2.54911 -0.805421,4.16345 -1.719011,4.2932 -0.419452,0.0596 -0.999366,-0.30053 -1.960454,-1.21734 z M 24.898686,178.7793 c 0,-0.38429 1.045191,-2.08304 1.27835,-2.0777 0.252709,0.006 0.651306,0.32291 1.056378,0.84046 0.309153,0.39499 0.224827,0.51167 -0.717063,0.99218 -1.208098,0.61633 -1.617665,0.67837 -1.617665,0.24506 z m 25.278711,-1.86681 c -0.06454,-0.19097 -0.153009,-0.64489 -0.196596,-1.00869 -0.05915,-0.49372 -0.213408,-0.64032 -0.608285,-0.5781 -1.407099,0.22172 -1.587984,0.17692 -1.671921,-0.41409 -0.10373,-0.73037 0.361977,-0.76113 3.226271,-0.2131 2.27475,0.43523 3.075985,0.78778 3.075985,1.35344 0,0.72262 -3.598497,1.53211 -3.825454,0.86054 z m -10.059631,-1.9274 c -0.566809,-0.21422 -0.859086,-0.32249 -1.640251,-0.25309 -0.781165,0.0694 -1.143413,0.37623 -1.143413,-0.0614 0,-0.43762 1.613283,-2.20639 1.984433,-2.20639 0.523507,0 1.45515,1.29331 1.45515,2.02005 0,0.68438 -0.08911,0.71503 -0.655919,0.50082 z"
         id="path828-2"
         inkscape:connector-curvature="0"
         sodipodi:nodetypes="zsssccsczzcscscccsscsccccccsccccccccsscccccccccsccccscccccccscsccscccscccsssczzzssz" />
    </g>
  </g>
</svg>
